<svg width="638" height="638" viewBox="0 0 638 638" fill="none" xmlns="http://www.w3.org/2000/svg">
<path d="M382.602 202.777L383.605 215.811L398.978 216.145L397.641 201.106L382.602 202.777Z" fill="#FFF8EB"/>
<path d="M387.615 195.759L386.946 201.775L396.972 200.772L390.622 196.428L387.615 195.759Z" fill="#FFF8EB"/>
<path d="M365 229.447L368.617 225.808L375.852 225L398.461 225.404L412.026 227.021L417 227.83V229.447H414.739L417 231.872H413.835L417 234.298L413.835 235.106L417 235.915L412.478 237.128L416.548 237.936L412.478 238.34L413.835 244H368.617L366.809 229.851L365 229.447Z" fill="#FFF8EB"/>
<path d="M403.656 254.912C403.656 252.907 412.011 251.57 412.011 250.902C412.011 248.228 412.345 244.886 411.008 244.886C402.319 242.547 370.571 242.547 366.894 244.886C365.892 244.886 366.894 250.902 367.229 251.236C367.563 251.57 374.247 252.907 374.247 253.241L370.236 348.488C370.236 349.825 385.275 351.83 409.337 349.49L403.656 254.912Z" stroke="#FFF8EB" stroke-width="1.42101" stroke-miterlimit="10" stroke-linecap="round" stroke-linejoin="round"/>
<path d="M374.247 252.573C381.934 248.562 398.644 249.565 405.996 251.57" stroke="#FFF8EB" stroke-width="0.947451" stroke-miterlimit="10" stroke-linecap="round" stroke-linejoin="round"/>
<path d="M366.894 244.218V225.837C375.249 221.827 408.669 224.834 412.679 225.837" stroke="#FFF8EB" stroke-width="1.89457" stroke-miterlimit="10" stroke-linecap="round" stroke-linejoin="round"/>
<path d="M366.894 226.171C371.907 224.834 398.643 224.166 413.014 226.171" stroke="#FFF8EB" stroke-width="0.947451" stroke-miterlimit="10" stroke-linecap="round" stroke-linejoin="round"/>
<path d="M374.247 224.166L380.597 233.524L407.667 234.192" fill="#FFF8EB"/>
<path d="M374.247 224.166L380.597 233.524L407.667 234.192" stroke="#20080B" stroke-width="0.947451" stroke-miterlimit="10" stroke-linecap="round" stroke-linejoin="round"/>
<path d="M378.591 215.811L380.596 220.824C383.604 219.487 393.964 219.487 398.643 220.824L400.314 216.479L378.591 215.811Z" fill="#FFF8EB" stroke="#FFF8EB" stroke-width="1.42101" stroke-miterlimit="10" stroke-linecap="round" stroke-linejoin="round"/>
<path d="M375.918 204.782C380.931 201.44 397.641 200.772 401.986 201.44C401.986 201.44 400.983 202.443 399.312 202.443C393.631 202.777 380.597 202.443 375.918 204.782Z" stroke="#FFF8EB" stroke-width="1.42101" stroke-miterlimit="10" stroke-linecap="round" stroke-linejoin="round"/>
<path d="M386.946 198.433L387.28 160L388.617 192.417L391.959 194.088L387.615 193.086L385.275 194.088L387.615 194.757L386.946 198.433Z" stroke="#FFF8EB" stroke-width="1.42101" stroke-miterlimit="10" stroke-linecap="round" stroke-linejoin="round"/>
<path d="M407.667 331.109L427.05 338.796" stroke="#FFF8EB" stroke-width="1.89457" stroke-miterlimit="10" stroke-linecap="round" stroke-linejoin="round"/>
<path d="M387.615 201.106V198.099L391.96 196.093L390.957 199.77L397.307 201.441H390.957L389.286 214.808H384.273L385.276 201.441L387.615 201.106Z" fill="#FFF8EB" stroke="#FFF8EB" stroke-width="0.947451" stroke-miterlimit="10"/>
<path d="M409.338 351.83C409.338 349.824 423.709 348.488 427.05 346.148C436.074 341.135 425.379 336.791 428.721 336.791C434.403 336.791 449.108 336.122 449.442 343.475C449.442 355.172 398.644 358.514 367.229 355.172C339.156 352.832 318.436 349.49 303.731 329.773C297.716 321.752 286.687 302.703 282.343 298.358C269.977 288.332 187.096 229.513 173.06 218.15C166.376 209.127 203.138 202.777 248.255 199.101" stroke="#FFF8EB" stroke-width="1.89457" stroke-miterlimit="10" stroke-linecap="round" stroke-linejoin="round"/>
<path d="M175.568 211.887C172.226 216.231 178.407 219.487 178.407 219.487C193.78 231.518 264.964 280.98 292.368 297.69C303.731 308.718 315.428 328.77 332.472 337.793C352.19 349.49 385.944 352.164 408.669 349.49" stroke="#FFF8EB" stroke-width="0.947451" stroke-miterlimit="10" stroke-linecap="round" stroke-linejoin="round"/>
<path d="M171.389 214.808L166.71 240.876L203.472 281.648C211.493 285.324 231.544 312.728 237.226 316.405L264.296 351.83L273.653 362.858C280.003 364.863 280.672 376.894 281.674 377.897C287.69 385.584 283.679 385.249 287.021 389.928L287.69 391.265L287.021 390.262L287.355 391.265L288.358 393.27C287.021 399.62 290.363 401.625 290.363 401.625C301.726 404.633 295.71 414.659 300.723 419.672L311.752 428.027C315.094 426.69 322.446 428.027 324.117 433.708C327.793 437.05 337.151 438.053 337.151 438.053C347.845 442.063 354.529 442.063 360.879 444.737C369.234 446.742 373.913 444.737 377.255 445.405C384.273 448.079 395.97 448.079 401.985 445.405C418.695 446.742 427.719 441.395 434.403 438.721C449.107 438.053 450.444 433.04 450.444 433.04C455.457 432.037 457.796 422.011 459.802 421.343L450.444 423.682L452.115 420.34L453.786 411.317L449.442 344.477" stroke="#FFF8EB" stroke-width="1.89457" stroke-miterlimit="10" stroke-linecap="round" stroke-linejoin="round"/>
<path d="M224.86 218.15C243.909 214.14 280.337 214.14 291.031 211.466C302.06 209.127 335.814 204.782 340.158 203.111" stroke="#FFF8EB" stroke-width="0.947451" stroke-miterlimit="10" stroke-linecap="round" stroke-linejoin="round"/>
<path d="M181.415 211.466C177.405 213.137 195.451 205.117 250.928 200.772L341.83 193.086" stroke="#FFF8EB" stroke-width="0.947451" stroke-miterlimit="10" stroke-linecap="round" stroke-linejoin="round"/>
<path d="M195.451 225.837L212.161 237.534L294.374 286.661L358.54 316.405L370.571 323.423" stroke="#FFF8EB" stroke-width="0.710505" stroke-miterlimit="10" stroke-linecap="round" stroke-linejoin="round"/>
<path d="M196.788 226.171L213.832 237.534L294.373 286.661L353.861 315.068L370.571 325.094" stroke="#FFF8EB" stroke-width="1.42101" stroke-miterlimit="10" stroke-linecap="round" stroke-linejoin="round"/>
<path d="M379.668 367.155L383.519 363.163C383.519 363.163 392.812 363.747 400.792 363.184C408.772 362.62 417.328 362.017 417.328 362.017L421.348 366.279L422.708 391.393L413.54 396.173L386.925 399.705L381.41 391.829L378.575 375.084L379.668 367.155Z" fill="#FFF8EB"/>
<path d="M322.447 345.146L319.105 381.907M327.46 346.817L324.452 385.249M330.467 349.49L327.46 387.923M332.473 351.83L329.131 388.591M336.817 351.83L333.809 390.262M337.151 391.933L338.488 354M339.5 355.506L338.488 392.268M340.828 356.174L340.493 393.604L340.159 404.633M341.83 394.5V355.506M344.17 395.61L343.501 377.897M375.25 291.674L374.247 325.094M378.592 291.674L377.589 325.094M375.918 259.257C377.589 258.588 387.281 258.254 386.947 258.588M375.584 262.599C377.255 260.928 387.281 260.928 386.947 261.596M375.25 270.285H384.273M375.25 274.296H383.605M376.921 278.64L383.605 278.306M396.973 288.332L395.302 253.241M397.307 263.267L398.644 288.332M370.571 327.767H382.602M372.242 332.78L380.931 333.114M371.908 337.793L385.276 338.462M371.908 343.14H385.944M371.908 346.482L380.597 346.817M368.9 348.488H380.597M400.315 348.822L397.307 306.379M396.973 349.824V325.094M400.649 325.428L401.986 348.822" stroke="#FFF8EB" stroke-width="0.710505" stroke-miterlimit="10" stroke-linecap="round" stroke-linejoin="round"/>
<path d="M387.281 201.775V216.145H396.973V202.443L387.281 201.775Z" fill="#FFF8EB" stroke="#FFF8EB" stroke-width="0.947451" stroke-miterlimit="10"/>
<path d="M390.623 201.44L390.957 216.479" stroke="#FFF8EB" stroke-width="0.947451" stroke-miterlimit="10" stroke-linecap="round" stroke-linejoin="round"/>
<path d="M187.096 221.827L185.425 215.811C196.454 204.783 250.26 201.775 250.26 201.775L350.185 195.759M198.793 224.834L200.13 222.829C208.819 219.487 226.866 217.482 226.866 217.482L346.843 202.443M190.104 228.176V224.166L185.425 217.482" stroke="#FFF8EB" stroke-width="0.947451" stroke-miterlimit="10" stroke-linecap="round" stroke-linejoin="round"/>
<path d="M327.459 295.35C333.809 295.016 337.485 293.679 353.527 294.348M328.462 300.029C330.133 301.032 352.524 311.726 355.198 312.728L370.571 318.41" stroke="#FFF8EB" stroke-width="0.947451" stroke-miterlimit="10" stroke-linecap="round" stroke-linejoin="round"/>
<path d="M348.848 302.034C350.184 303.371 363.887 303.371 365.558 302.034C368.565 301.032 350.519 303.371 348.848 302.034Z" fill="#FFF8EB"/>
<mask id="path-29-inside-1_83_1992" fill="white">
<path d="M325.789 301.032L326.791 305.042V302.703L325.789 301.032Z"/>
</mask>
<path d="M325.789 301.032L326.791 305.042V302.703L325.789 301.032Z" fill="#FF0000"/>
<path d="M325.789 301.032L328.654 299.312L322.546 301.842L325.789 301.032ZM326.791 305.042L323.549 305.853L330.133 305.042H326.791ZM326.791 302.703H330.133V301.777L329.657 300.983L326.791 302.703ZM325.789 301.032L322.546 301.842L323.549 305.853L326.791 305.042L330.033 304.231L329.031 300.221L325.789 301.032ZM326.791 305.042H330.133V302.703H326.791H323.449V305.042H326.791ZM326.791 302.703L329.657 300.983L328.654 299.312L325.789 301.032L322.923 302.751L323.925 304.422L326.791 302.703Z" fill="#FF0000" mask="url(#path-29-inside-1_83_1992)"/>
<path d="M170.052 312.728C182.083 314.399 193.78 308.384 200.464 310.055M186.762 298.692C193.112 294.348 203.137 298.692 214.834 298.358M184.757 291.006C189.101 290.003 198.793 293.345 211.827 294.348M191.441 282.651C194.783 280.98 200.464 280.98 201.801 281.648M179.744 284.322L191.441 283.319M181.749 279.309H190.104M183.754 275.967L191.441 275.298M179.744 271.956L189.101 269.617M179.744 266.275L186.762 265.272M173.394 263.267L181.749 264.27M173.394 259.925H178.741M159.023 258.254C166.71 255.246 175.065 258.588 178.407 257.586M163.702 254.244H173.394M165.373 251.57L173.728 249.899M163.368 247.56L171.389 246.223M160.694 242.881L167.044 242.547M150 239.539H155.013M160.026 240.876H164.705M158.021 232.855L163.368 233.189M163.368 234.86H166.71" stroke="#FFF8EB" stroke-width="0.947451" stroke-miterlimit="10" stroke-linecap="round" stroke-linejoin="round"/>
<path d="M183.754 399.62C188.098 397.949 191.44 396.612 195.451 396.946M178.741 416.998C190.103 412.988 196.453 409.646 207.148 413.656M208.15 428.695C212.161 428.027 213.163 431.369 222.521 431.369L243.241 427.024M208.819 444.737C214.834 443.4 219.847 448.747 230.541 449.081C244.912 449.081 253.935 439.724 256.609 440.058C259.951 439.724 263.293 443.4 273.319 442.063C281.005 440.058 271.982 438.053 273.987 436.382C273.987 434.711 281.005 433.708 282.342 437.05M237.56 455.765C244.912 456.768 257.277 446.742 265.298 450.418L266.969 452.089M260.953 455.431C270.979 450.418 280.671 456.434 290.363 457.102M285.016 475.483C290.029 472.141 299.052 470.136 308.744 473.143C315.762 475.483 327.125 478.825 335.48 477.154M285.684 446.408C298.384 448.747 319.104 442.063 324.117 447.076C330.467 451.421 334.143 448.079 338.487 449.081M296.713 462.115C308.41 462.449 320.775 454.763 326.122 457.102L327.459 458.773M306.739 425.353L311.752 428.027C307.073 426.69 304.399 423.348 300.389 427.024M297.381 423.682L303.731 427.024L313.423 428.027L317.433 429.698M303.397 433.708L313.757 434.711M295.71 439.724C310.415 443.066 313.423 436.382 320.107 440.392C325.12 443.734 329.13 443.066 329.13 443.066M300.389 420.34L291.7 418.001C284.013 415.327 276.995 424.685 260.285 424.685C272.316 430.032 281.005 428.027 290.363 427.024C297.381 427.024 296.713 430.032 303.397 432.037M249.925 422.345C258.28 418.001 259.951 418.669 265.632 420.34L276.995 424.685M253.267 413.656C263.293 415.327 266.969 412.988 270.645 411.985M249.925 419.672L255.606 416.998C264.964 414.659 283.679 418.001 287.021 418.001L297.047 421.343M260.619 401.959C268.974 398.617 276.661 406.304 284.013 406.304L287.021 409.646L290.697 410.314M265.298 405.635C276.995 408.977 285.684 402.962 287.021 410.314M273.653 411.317H279M260.285 401.959C265.632 400.288 279 397.949 280.671 399.62L282.342 401.291H286.687M228.87 402.962C251.596 402.962 256.943 395.61 260.953 395.61C264.964 395.275 268.306 397.949 279 396.612M230.541 386.92C237.225 392.936 249.925 388.926 256.943 384.581M253.935 391.265C255.606 388.591 266.635 388.591 272.316 391.265M221.518 395.61C227.199 397.949 230.876 396.946 233.883 396.612M223.857 416.998C228.202 420.34 236.557 420.34 239.231 418.001M230.207 435.713C243.575 436.382 249.925 431.369 254.938 431.369L255.606 432.037M191.44 381.573C200.464 382.91 217.174 381.573 228.87 377.897C236.891 374.555 243.575 383.578 252.264 381.907L255.606 379.902C260.285 376.894 277.329 381.239 276.661 383.578L272.316 387.923H279L273.987 386.252M200.129 365.532C208.819 368.539 222.187 358.514 231.544 362.19C237.56 365.197 243.241 365.532 248.922 363.192M188.098 362.19C200.129 363.192 212.161 357.845 218.176 357.845C226.865 356.843 238.896 356.508 243.575 358.514H250.259C253.601 361.856 260.285 356.843 263.627 359.85L264.964 361.187C256.943 358.514 254.938 361.856 249.925 358.848M198.124 352.832C208.484 348.822 212.161 351.161 218.176 349.824L230.541 347.819M183.754 344.477C191.44 347.819 201.466 345.146 208.15 344.477M183.754 327.767C184.756 325.428 198.124 326.431 197.122 326.765M190.438 330.107C196.787 331.778 206.813 331.109 210.49 328.77M203.471 319.747L211.492 320.081L225.528 318.41C229.873 318.41 237.225 319.412 238.228 321.752M202.135 316.739L210.155 314.399L220.181 315.068M210.49 307.715L212.161 310.055L218.845 309.721M210.49 304.373H218.176M202.135 293.345H208.15M196.787 289.335H201.466M196.787 286.661H201.8M160.694 291.006C163.033 289.669 170.052 290.003 171.388 291.006M154.678 279.309L163.033 278.64M163.702 270.954L170.052 270.285M155.347 264.27H160.36M152.339 251.57L155.347 251.904M276.995 230.85C280.337 229.847 290.697 230.85 291.7 230.85M279 238.536C281.674 239.205 290.363 238.536 290.697 238.536M273.987 265.272H288.358M329.13 259.591L322.446 260.259M344.169 274.296H351.855M317.099 270.285C308.744 270.954 303.397 271.956 295.71 270.954M317.099 277.638C322.446 274.964 327.459 277.638 332.138 278.64M302.394 280.98H313.757M313.757 284.99H323.783M300.389 301.7L305.736 306.044H301.726M305.736 322.754H310.749M310.081 332.112L317.433 331.778M313.757 336.122H319.104M318.436 338.796H325.12M322.446 321.752H325.12M323.783 326.431H328.461M330.467 331.109L337.151 330.107M333.809 331.778L338.487 331.109M333.809 320.081H337.151M343.5 340.133H346.842M350.184 341.804L355.532 341.135M352.524 341.804H357.537M361.213 340.133H364.221M360.545 343.14H366.894" stroke="#FFF8EB" stroke-width="0.947451" stroke-miterlimit="10" stroke-linecap="round" stroke-linejoin="round"/>
<path d="M282.008 462.449C285.016 464.789 296.713 463.452 296.713 463.452M310.749 465.791C331.804 472.141 338.488 468.799 353.861 463.786C363.887 460.444 373.579 463.118 381.934 460.11M360.879 470.804C373.579 466.46 383.939 462.449 392.628 466.46L395.301 466.794M339.156 443.066C343.835 446.408 348.848 449.081 354.195 449.75C365.224 449.75 365.224 453.426 376.921 450.418M352.524 456.434C365.892 460.444 375.25 452.089 387.615 454.763M382.268 451.421C390.288 453.76 396.972 452.089 400.314 450.418L403.656 451.421C415.688 451.421 432.397 451.421 436.074 444.737L437.076 443.066M384.273 452.089C389.286 453.76 397.307 452.089 401.985 449.75M390.957 456.768L400.649 455.431M407.667 454.763L413.682 455.431C417.024 456.434 420.7 453.76 420.7 453.76" stroke="#FFF8EB" stroke-width="0.947451" stroke-miterlimit="10" stroke-linecap="round" stroke-linejoin="round"/>
<path d="M416.022 279.977C419.364 279.977 429.39 279.309 429.39 279.977M410.675 305.376C413.682 305.376 426.048 305.376 427.384 306.045M416.022 308.718C418.695 308.718 424.377 309.721 426.048 308.718M415.688 321.752L425.379 322.754L441.087 321.752M428.721 316.739C433.734 316.739 440.752 316.07 444.429 317.741L451.113 316.739M432.063 343.475H438.747M432.397 344.477H438.747M452.115 335.12C456.126 336.457 465.483 334.451 465.817 335.12M455.457 361.856C462.141 363.192 464.146 358.514 471.164 359.85C479.185 361.856 485.535 361.187 487.54 361.187M457.462 375.558C462.809 375.223 467.488 375.558 471.164 376.56M463.812 382.91L482.193 380.236M456.125 399.62L467.822 398.617L472.167 399.62M460.804 404.633L467.822 403.63M455.457 411.317L460.804 410.314L465.483 411.317" stroke="#FFF8EB" stroke-width="0.947451" stroke-miterlimit="10" stroke-linecap="round" stroke-linejoin="round"/>
<path d="M195.451 221.827L200.13 217.482V213.137L195.451 221.827Z" fill="#FFF8EB"/>
<path d="M240.568 219.153L265.299 216.479L289.027 213.137M235.555 220.824H252.265M230.208 220.824H250.594M226.866 220.824H248.923M214.835 226.171L230.542 224.166M211.493 228.176L223.858 226.171M210.49 228.511L230.542 227.508M213.498 231.518L221.519 230.85M216.506 232.521L226.866 231.518M218.177 234.192H228.871M231.879 232.521L234.887 232.855M244.913 242.547H248.255H243.91M248.255 235.863H256.61M248.255 249.899L264.965 249.231M256.61 256.583H270.312M283.68 254.912H290.698M287.356 259.257H294.04" stroke="#FFF8EB" stroke-width="0.947451" stroke-miterlimit="10" stroke-linecap="round" stroke-linejoin="round"/>
<path d="M446.058 353L449 384.434M443.115 355.187L446.058 386.621M441.154 357.1L444.423 387.167M436.904 357.1L439.846 388.534M436.577 389.901L435.269 358.875M434.279 360.107L435.269 390.174M433.308 391.267L432.981 360.653M432 392V360.107" stroke="#FFF8EB" stroke-width="0.710505" stroke-miterlimit="10" stroke-linecap="round" stroke-linejoin="round"/>
<path d="M110.556 255.911L113.029 256.735L107.258 275.287L105.609 275.699L103.547 274.05L104.784 270.34C103.135 267.454 95.302 264.98 71.3908 257.147L68.505 261.682H66.4437L64.7947 260.033L67.2682 253.025L68.505 246.429L75.5135 248.078C72.6276 243.543 72.2154 236.534 75.1012 230.763C77.1625 227.052 81.2851 224.991 85.4077 224.991L81.6974 216.334L82.1096 208.913C82.9342 204.79 87.8813 200.668 92.0039 200.668C99.4246 200.255 106.021 203.553 125.809 209.325L129.52 205.615L132.405 206.852L124.985 224.579L122.099 224.166L122.923 217.983C103.135 210.974 91.5916 205.202 87.469 209.325C84.5832 213.035 84.1709 218.807 88.2935 222.105C90.7671 224.579 105.608 229.114 115.503 233.236L119.213 229.114L122.099 230.763L115.503 249.727L113.029 249.314L113.441 245.604C110.968 242.718 107.258 241.069 103.547 240.245C96.5388 237.359 86.2322 231.587 80.0483 233.236C75.9257 236.122 75.1012 246.016 80.4606 248.902L107.67 259.621L110.556 255.911Z" fill="#FFF8EB"/>
<path d="M133.643 166.45L126.222 161.503C121.275 158.205 115.503 157.793 110.144 166.038C110.144 169.748 112.205 167.275 114.266 168.511C116.74 170.16 118.389 174.695 115.915 176.757C113.854 178.406 112.205 178.818 109.731 176.344C103.548 173.458 107.67 159.442 117.977 153.258C120.862 151.609 125.81 151.609 127.871 153.258L148.072 167.687C154.256 173.458 156.317 169.748 156.317 165.213L157.966 164.389C162.501 168.924 158.378 179.642 148.484 175.932C150.545 184.177 143.949 194.072 135.292 192.835C128.283 192.01 121.275 184.177 124.161 176.344C126.222 172.222 128.283 168.511 133.643 164.389M134.055 167.687C129.52 172.634 126.222 178.818 132.406 183.353C135.704 185.826 141.888 187.063 144.361 182.941C146.01 180.467 146.01 175.52 143.125 173.458L134.055 167.687Z" fill="#FFF8EB"/>
<path d="M155.492 123.575L152.606 118.215L138.177 128.11L139.414 130.171H141.063L144.361 127.697L146.834 129.346L169.097 153.67L165.386 159.441L167.035 161.503L183.938 147.074V145.012L181.877 143.776L176.517 147.898L158.79 130.171L157.141 122.75C157.141 119.04 158.79 113.68 161.264 119.04C164.562 122.75 171.982 117.391 169.097 111.619C164.562 102.549 150.957 109.97 153.018 121.513" fill="#FFF8EB"/>
<path d="M196.306 107.909L219.393 97.1901C217.332 91.0062 211.972 82.761 204.552 83.5855C188.473 84.8223 181.877 101.313 191.772 117.391C204.139 135.53 224.34 131.408 226.402 109.97L224.34 108.733C218.569 126.048 203.727 123.987 196.306 107.909ZM195.894 105.848C193.833 100.9 190.123 88.1204 202.078 87.7081C206.613 87.7081 209.911 93.4798 210.736 97.6024L195.894 105.848ZM188.061 84.8223L190.123 65.8583C195.894 62.1479 200.017 63.797 198.368 69.9809L191.359 85.2345L188.061 84.8223Z" fill="#FFF8EB"/>
<path d="M243.716 88.1204L267.627 81.1119C267.627 73.6912 262.267 63.797 252.373 64.2092C235.47 64.6215 230.523 81.1119 237.944 97.6024C249.487 115.33 269.688 112.032 272.162 93.892L269.688 93.0675C263.504 105.435 247.838 105.848 243.716 88.1204ZM244.128 84.8223C242.891 80.6997 239.593 67.9196 251.549 67.5073C256.084 67.5073 257.733 74.5158 258.969 79.0506L244.128 84.8223Z" fill="#FFF8EB"/>
<path d="M313.389 95.9533L309.678 96.3656V98.4269L329.467 99.6637V97.6024L325.344 96.3656C323.283 93.0675 326.169 72.8667 326.581 70.8054C328.23 65.446 331.528 62.1479 338.536 62.1479C348.843 63.3847 344.308 77.8138 343.071 98.4269H336.887L336.475 100.9L356.264 102.549L356.676 100.488L351.317 98.8391C349.255 94.3043 354.615 70.8054 352.141 64.2092C350.492 57.613 342.659 55.964 336.475 57.613C333.589 58.4376 330.291 60.0866 327.818 62.5602L329.467 37.4123L328.23 37H315.038L313.801 39.0613L315.45 40.7103L320.397 41.5349L315.862 95.541L313.389 95.9533Z" fill="#FFF8EB"/>
<path d="M397.902 89.3571L389.244 88.1203C369.043 83.1732 366.982 105.023 379.35 109.558C383.885 111.207 389.656 109.97 392.542 107.909C392.13 116.979 402.849 119.864 406.559 114.917L406.147 112.856H402.024C395.428 107.909 410.269 90.1816 408.208 78.226C407.796 70.8053 397.902 66.6827 389.656 67.5072C375.64 69.5685 378.113 80.6996 386.358 79.0505L389.244 74.9279L388.42 71.6298C397.902 69.5685 404.498 74.1034 402.024 81.1118L397.902 89.3571ZM396.665 93.0674L393.779 102.549C390.069 108.733 377.701 107.909 379.762 97.6023C381.823 88.1203 390.481 90.1816 396.665 93.0674Z" fill="#FFF8EB"/>
<path d="M449.847 91.4184L434.593 113.68C427.585 123.575 428.409 130.171 440.777 130.171C443.251 130.171 445.312 129.346 446.136 127.697L460.153 107.084L456.031 101.313L458.092 98.8391L468.811 105.435L469.635 107.084L447.785 139.653L452.32 144.188L451.083 146.661L438.716 138.416L442.014 132.232C433.356 136.767 414.805 129.346 423.05 113.68L438.716 91.4184L433.356 86.8835L435.418 84.8222L448.198 91.0061L447.785 92.2429" fill="#FFF8EB"/>
<path d="M486.95 123.575L489.011 121.513C494.37 123.987 497.669 123.575 504.677 119.864L507.975 123.162L500.554 130.583L507.975 138.828L506.738 142.126L503.852 141.714L496.844 134.294L474.17 154.907C467.986 161.503 473.757 165.213 482.003 164.801L483.239 165.625C480.766 173.458 458.092 165.213 467.574 151.196L490.66 128.522L486.95 123.575Z" fill="#FFF8EB"/>
<path d="M508.799 173.458L522.404 193.247C529.825 190.361 537.658 182.94 534.36 173.871C527.763 158.205 512.097 158.617 498.905 169.336C484.064 183.765 492.309 201.904 511.273 201.492L511.685 198.606C498.905 198.606 491.072 183.765 508.799 173.458ZM511.685 171.809C516.22 169.748 528.176 164.389 531.474 174.695C532.71 180.055 526.114 183.765 521.579 185.414L511.685 171.809Z" fill="#FFF8EB"/>
<path d="M552.5 262.094C560.333 264.568 562.806 277.76 552.5 279.822C541.781 279.822 540.956 265.805 552.5 262.094Z" fill="#FFF8EB"/>
<path d="M129.932 455.032L132.817 451.322L137.765 455.857L144.361 458.331V460.392L138.589 465.751C148.896 462.041 162.5 471.523 156.316 483.891C162.5 481.005 176.929 483.891 176.105 495.022C175.693 504.504 156.729 517.696 155.08 524.292L158.79 528.003L156.316 531.301L141.063 517.696L142.712 515.223L148.071 517.284L165.386 498.32C175.693 487.189 160.439 482.242 154.667 488.013L136.528 506.977L139.826 511.512L136.528 513.986L122.511 502.855L123.748 500.381L129.932 502.442C137.765 492.136 153.018 480.593 150.132 473.996C146.422 468.225 138.589 467.4 133.642 472.76L117.152 490.487L120.45 497.083L117.564 499.557L102.722 486.777L103.135 484.715L105.196 483.891L109.731 486.777C113.029 486.364 130.756 463.278 133.642 459.98L129.932 455.032Z" fill="#FFF8EB"/>
<path d="M204.551 529.24L196.305 527.178C183.938 523.468 177.341 527.591 174.868 537.485C175.692 547.791 187.648 553.151 195.481 546.967C193.42 554.8 200.428 559.335 207.024 558.51L208.673 555.212L204.138 553.151C200.016 546.967 217.331 531.713 214.033 516.872C211.971 510.688 202.077 506.565 194.656 507.39C183.938 510.688 183.525 520.994 193.832 519.345L196.718 515.223L196.305 510.688C204.138 509.451 211.971 513.986 207.024 523.056L204.551 529.24ZM203.726 531.301L197.542 542.432C189.709 548.616 178.166 541.607 184.35 533.362C188.473 527.591 195.893 530.064 203.726 531.301Z" fill="#FFF8EB"/>
<path d="M243.716 533.774L247.014 525.529L232.998 523.468L232.585 526.354L237.12 529.239V533.362L228.875 562.22L222.279 562.633L221.042 566.343L241.655 572.527L243.716 570.878L242.892 568.404L237.12 566.343L236.708 563.457L241.655 545.73C243.304 539.958 249.488 531.301 254.435 533.362L252.374 536.248C255.26 545.73 264.742 542.02 262.268 532.125C257.733 525.529 247.839 529.239 243.716 533.774Z" fill="#FFF8EB"/>
<path d="M278.758 554.8L302.669 558.098L303.493 556.036C305.555 546.554 299.371 533.774 287.415 534.599C270.925 535.423 266.39 558.098 272.986 570.466C280.407 583.658 297.309 584.895 303.493 571.702L301.02 569.229C294.836 578.711 276.696 577.062 278.758 554.8ZM279.17 552.326C279.994 546.555 282.88 536.248 291.125 537.897C299.371 538.722 296.485 550.677 296.485 553.975L279.17 552.326Z" fill="#FFF8EB"/>
<path d="M297.432 512.497L291.125 530.5L294.244 531.649L304.528 518.381C307.536 512.732 303.894 510.191 297.432 512.497Z" fill="#FFF8EB"/>
<path d="M328.229 557.273L352.553 555.212L353.377 553.151C352.553 544.905 346.781 533.362 335.65 534.599C315.449 536.248 313.8 566.343 327.405 577.474C337.711 583.658 350.079 581.597 355.439 569.229L353.377 567.168C346.369 580.772 328.229 577.474 328.229 557.273ZM327.405 553.975C326.58 548.616 328.229 537.485 337.711 537.485C343.071 537.485 344.72 546.554 344.72 551.914L327.405 553.975Z" fill="#FFF8EB"/>
<path d="M400.787 527.178L409.033 517.696C428.409 503.679 442.838 530.476 437.479 547.791C434.593 556.449 422.225 563.045 413.98 558.922L412.331 566.755H409.857L385.946 513.574L383.06 511.1L378.938 513.161L377.289 510.688L389.656 503.267L391.305 504.504L400.787 527.178ZM402.436 530.476L412.743 551.089C419.339 560.984 434.593 556.861 430.882 539.958C426.76 525.529 413.98 511.512 402.436 530.476Z" fill="#FFF8EB"/>
<path d="M466.337 506.565L462.214 501.206C458.092 496.259 452.32 494.197 447.373 502.443C446.136 506.977 449.434 505.328 451.908 508.626C453.145 511.512 449.434 516.872 445.312 513.574C436.654 506.977 450.259 490.075 460.565 492.548C469.635 494.61 479.942 515.223 484.889 517.284L490.248 513.574L492.722 515.223C490.66 523.468 484.889 527.178 478.293 520.994C479.942 530.064 470.46 540.371 461.39 534.187C445.312 524.292 459.741 513.161 466.337 506.565ZM468.398 508.626C463.451 514.81 458.504 519.345 464.276 526.354C473.758 534.187 481.178 520.17 473.758 513.574L468.398 508.626Z" fill="#FFF8EB"/>
<path d="M491.484 455.857L501.791 464.102L501.379 466.576C486.537 459.98 476.643 473.997 488.186 481.005C495.607 483.891 505.501 466.576 517.457 476.47C527.763 487.189 517.457 501.206 509.212 502.443L510.036 505.328L507.975 506.565L496.432 498.732L497.256 496.259L501.791 497.083C519.518 504.504 527.351 480.593 512.098 480.593C506.738 481.005 494.37 494.197 483.239 484.303C474.17 475.646 481.178 463.278 491.484 459.98L489.423 457.094L491.484 455.857Z" fill="#FFF8EB"/>
<path d="M517.869 420.403L529.825 426.999L529.413 429.06C519.518 424.525 507.563 432.77 513.747 441.428C523.229 450.91 528.176 431.121 543.017 434.419C556.622 439.367 552.087 459.98 540.956 464.102L543.017 467.4L541.78 469.462L529.825 463.278V459.155C546.728 465.339 554.973 446.787 543.017 441.84C534.36 439.367 529.413 452.971 517.869 451.734C502.616 449.261 503.852 430.297 517.869 424.525L515.808 422.052L517.869 420.403Z" fill="#FFF8EB"/>
<path d="M546.316 408.035L563.219 409.684C571.876 405.561 570.639 397.728 567.341 391.544L568.99 389.895C579.709 398.141 573.525 418.341 558.684 419.99C530.238 418.754 524.054 398.141 536.422 384.948C542.193 380.001 552.5 381.65 557.035 385.773L546.316 408.035ZM545.079 406.798L550.851 391.132C530.238 380.826 529.413 402.263 545.079 406.798Z" fill="#FFF8EB"/>
<path d="M68.9169 360.213C78.8112 356.915 85.4074 372.58 73.8641 376.703C62.733 377.94 58.6104 363.511 68.9169 360.213Z" fill="#FFF8EB"/>
</svg>
